<?xml version="1.0" ?><svg enable-background="new 0 0 64 64" height="64px" version="1.1" viewBox="0 0 64 64" width="64px" xml:space="preserve" xmlns="http://www.w3.org/2000/svg" xmlns:xlink="http://www.w3.org/1999/xlink"><g id="Layer_1"><g><circle cx="32" cy="32" fill="#4F5D73" r="32"/></g><g><path d="M16,36c0,1.105-0.895,2-2,2l0,0c-1.105,0-2-0.895-2-2v-2c0-1.105,0.895-2,2-2l0,0c1.105,0,2,0.895,2,2V36z    " fill="#C75C5C"/></g><g><path d="M24,28c0,1.105-0.895,2-2,2l0,0c-1.105,0-2-0.895-2-2v-2c0-1.105,0.895-2,2-2l0,0c1.105,0,2,0.895,2,2V28z    " fill="#F5CF87"/></g><g><path d="M44,28c0,1.105-0.895,2-2,2l0,0c-1.105,0-2-0.895-2-2v-2c0-1.105,0.895-2,2-2l0,0c1.105,0,2,0.895,2,2V28z    " fill="#F5CF87"/></g><g><path d="M48,36c0,1.105,0.895,2,2,2l0,0c1.105,0,2-0.895,2-2v-2c0-1.105-0.895-2-2-2l0,0c-1.105,0-2,0.895-2,2V36z    " fill="#76C2AF"/></g><g opacity="0.2"><path d="M32,32.595l17,4.797c2.891,0.862,3-0.412,3-2.399v1.199c0-1.987,0.094-3.354-1.75-4.479L32,23    l-18.25,8.714C11.906,32.838,12,34.206,12,36.193v-1.199c0,1.987,0.109,3.261,3,2.399L32,32.595z" fill="#231F20"/></g><g><path d="M32,30.595l17,4.797c2.891,0.862,3-0.412,3-2.399v1.199c0-1.987,0.094-3.354-1.75-4.479L32,21    l-18.25,8.714C11.906,30.838,12,32.206,12,34.193v-1.199c0,1.987,0.109,3.261,3,2.399L32,30.595z" fill="#E0E0D1"/></g><g><g><path d="M51.998,33.362c0,0.032,0.002,0.062,0.002,0.094v-0.463C52,33.119,52,33.242,51.998,33.362z" fill="#E0E0D1"/></g><g><path d="M52,33.456v0.736C52,33.937,52.001,33.692,52,33.456z" fill="#E0E0D1"/></g><g opacity="0.2"><polygon fill="#231F20" points="32,21 26.98,23.397 27.417,31.888 32,30.595 36.583,31.888 37.02,23.397    "/></g></g><g><path d="M35,43.618c0,1.591-0.343,2.882-2,2.882h-2c-1.657,0-2-1.29-2-2.882l-1-26.855C28,15.172,30.343,10,32,10    l0,0c1.657,0,4,5.172,4,6.763L35,43.618z" fill="#E0E0D1"/></g><g opacity="0.2"><path d="M42.992,48.847L32,42l-10.992,6.847C19.856,49.763,20,51.137,20,52.757c0,0,0.193,1.826,2,1.123L32,50    l10,3.88c1.807,0.703,2-1.123,2-1.123C44,51.137,44.144,49.763,42.992,48.847z" fill="#231F20"/></g><g><path d="M42.992,46.847L32,40l-10.992,6.847C19.856,47.763,20,49.137,20,50.757c0,0,0.193,1.826,2,1.123L32,48    l10,3.88c1.807,0.703,2-1.123,2-1.123C44,49.137,44.144,47.763,42.992,46.847z" fill="#E0E0D1"/></g><g opacity="0.2"><path d="M34,51c0,1.105-0.895,2-2,2l0,0c-1.105,0-2-0.895-2-2v-5c0-1.105,0.895-2,2-2l0,0c1.105,0,2,0.895,2,2V51z    " fill="#231F20"/></g><g><path d="M34,49c0,1.105-0.895,2-2,2l0,0c-1.105,0-2-0.895-2-2v-5c0-1.105,0.895-2,2-2l0,0c1.105,0,2,0.895,2,2V49z    " fill="#E0E0D1"/></g><g><g><path d="M32,16c1.163,0,2.176-1.223,2.714-3.033C33.907,11.401,32.862,10,32,10s-1.907,1.401-2.714,2.967     C29.824,14.777,30.837,16,32,16z" fill="#77B3D4"/></g></g></g><g id="Layer_2"/></svg>